<?xml version="1.0" encoding="UTF-8" standalone="no"?>
<!DOCTYPE svg PUBLIC "-//W3C//DTD SVG 1.1//EN" "http://www.w3.org/Graphics/SVG/1.1/DTD/svg11.dtd">
<svg width="100%" height="100%" viewBox="0 0 164 188" version="1.1" xmlns="http://www.w3.org/2000/svg" xmlns:xlink="http://www.w3.org/1999/xlink" xml:space="preserve" xmlns:serif="http://www.serif.com/" style="fill:#2A91DB; fill-rule:evenodd;clip-rule:evenodd;stroke-linecap:round;stroke-linejoin:round;stroke-miterlimit:1.5;">
    <g transform="matrix(1,0,0,1,-53.1736,-7.97103)">
        <g transform="matrix(-1,0,0,1,269.466,0)">
            <path d="M54.16,22.294C53.059,21.68 53.777,20.271 56.835,18.905C59.176,17.86 60.83,18.582 63.613,17.478C67.209,16.051 72.114,11.355 76.276,9.988C80.179,8.705 85.321,7.704 88.582,9.274C98.272,13.941 100.461,21.831 101.423,24.791C102.582,28.358 105.673,67.327 106.773,75.264C107.277,78.896 108.378,83.289 110.519,85.608C112.659,87.926 116.52,88.158 119.614,89.175C123.687,90.512 129.887,91.993 134.953,93.634C140.779,95.521 148.242,97.681 154.571,100.5C161.11,103.413 166.873,109.792 174.189,111.112C184.326,112.94 208.819,110.844 215.388,111.469C216.659,111.589 214.619,114.083 213.605,114.857C210.84,116.968 202.309,121.189 198.802,124.131C196.133,126.37 189.617,138.274 187.744,140.896C185.366,144.225 173.535,158.226 144.762,170.146C141.739,171.398 140.362,184.413 141.373,186.732C142.384,189.051 152.968,193.314 150.469,193.866C145.356,194.996 120.714,194.817 115.869,194.044C113.456,193.659 119.154,190.197 121.398,189.229C124.222,188.01 130.583,188.099 132.812,186.732C134.527,185.68 134.522,183.021 134.774,181.025C135.071,178.677 135.666,174.069 134.596,172.642C133.526,171.216 126.861,166.368 124.029,164.165C120.346,161.301 120.239,156.591 116.226,153.024C113.857,150.918 103.81,150.426 98.569,149.1C91.058,147.201 80.883,134.892 75.384,127.52C71.18,121.885 71.282,113.252 71.282,106.831C71.282,100.731 73.355,94.749 75.384,88.996C77.554,82.843 83.065,76.825 84.301,69.913C85.609,62.601 84.034,50.949 83.231,45.122C82.738,41.545 81.329,37.721 79.486,34.957C77.687,32.258 74.492,30.26 72.173,28.536C70.12,27.009 67.993,25.45 65.575,24.612C62.572,23.572 55.973,23.304 54.16,22.294Z" style="stroke:#2A91DB;stroke-width:1px;"/>
        </g>
    </g>
</svg>
